<svg xmlns="http://www.w3.org/2000/svg" width="24" height="19.806" viewBox="0 0 24 19.806">
  <path id="_23" data-name="23" d="M14.022,23.576a1.2,1.2,0,0,1-.71-.229L4.4,16.777a.626.626,0,0,1-.132-.12A7.527,7.527,0,0,1,14.022,5.25a7.532,7.532,0,0,1,9.819.734h0a7.544,7.544,0,0,1,0,10.673.626.626,0,0,1-.132.12L14.732,23.3A1.2,1.2,0,0,1,14.022,23.576Zm-8.182-8.7,8.182,6.016L22.2,14.876a5.15,5.15,0,0,0-.06-7.22h0a5.138,5.138,0,0,0-7.22,0,1.2,1.2,0,0,1-1.709,0,5.161,5.161,0,0,0-7.376,7.22Z" transform="translate(-2.052 -3.77)" fill="#707070"/>
</svg>
