<svg xmlns="http://www.w3.org/2000/svg" width="22" height="18" viewBox="0 0 22 18">
  <path id="_31" data-name="31" d="M23.483,6.33a1.126,1.126,0,0,0-1.1,0L17.4,8.717V6.17a1.068,1.068,0,0,0-.6-.953,16.333,16.333,0,0,0-14.19,0A1.068,1.068,0,0,0,2,6.17V19.016a1.068,1.068,0,0,0,.605.953,16.287,16.287,0,0,0,14.19,0,1.068,1.068,0,0,0,.6-.953V16.468l5,2.43a1.12,1.12,0,0,0,1.078-.043,1.064,1.064,0,0,0,.517-.91V7.24A1.064,1.064,0,0,0,23.483,6.33ZM15.2,18.341a14.109,14.109,0,0,1-11,0V6.855a14.018,14.018,0,0,1,11,0ZM21.8,16.2l-4.4-2.141V11.115l4.4-2.141Z" transform="translate(-2 -3.595)" fill="#707070"/>
</svg>
