<svg id="Component_1_1" data-name="Component 1 – 1" xmlns="http://www.w3.org/2000/svg" width="22" height="22" viewBox="0 0 22 22">
  <path id="Path_1" data-name="Path 1" d="M23.778,8.594h0L16.444,2.815a3.979,3.979,0,0,0-4.889,0L4.222,8.594A3.157,3.157,0,0,0,3,11.078v9.6a3.5,3.5,0,0,0,3.667,3.3H21.333A3.5,3.5,0,0,0,25,20.68V11.067a3.158,3.158,0,0,0-1.222-2.472ZM16.444,21.779H11.556V16.285a1.165,1.165,0,0,1,1.222-1.1h2.444a1.165,1.165,0,0,1,1.222,1.1Zm6.111-1.1a1.165,1.165,0,0,1-1.222,1.1H18.889V16.285a3.5,3.5,0,0,0-3.667-3.3H12.778a3.5,3.5,0,0,0-3.667,3.3v5.493H6.667a1.165,1.165,0,0,1-1.222-1.1V11.067a1.055,1.055,0,0,1,.416-.824l7.333-5.768a1.327,1.327,0,0,1,1.613,0l7.333,5.768a1.055,1.055,0,0,1,.416.824Z" transform="translate(-3 -1.976)" fill="#707070"/>
</svg>
