<svg xmlns="http://www.w3.org/2000/svg" width="36.956" height="36.956" viewBox="0 0 36.956 36.956">
  <g id="Group_74" data-name="Group 74" transform="translate(-277 -24)">
    <g id="Path_14" data-name="Path 14" transform="translate(277 24)">
      <path d="M 18.47784423828125 36.45568466186523 C 13.67578411102295 36.45568466186523 9.161153793334961 34.58566284179688 5.765594005584717 31.19009399414062 C 2.37002420425415 27.79453468322754 0.5000042319297791 23.27990341186523 0.5000042319297791 18.47784423828125 C 0.5000042319297791 13.67578411102295 2.37002420425415 9.161153793334961 5.765594005584717 5.765594005584717 C 9.161153793334961 2.37002420425415 13.67578411102295 0.5000042319297791 18.47784423828125 0.5000042319297791 C 23.27990341186523 0.5000042319297791 27.79453468322754 2.37002420425415 31.19009399414062 5.765594005584717 C 34.58566284179688 9.161153793334961 36.45568466186523 13.67578411102295 36.45568466186523 18.47784423828125 C 36.45568466186523 23.27990341186523 34.58566284179688 27.79453468322754 31.19009399414062 31.19009399414062 C 27.79453468322754 34.58566284179688 23.27990341186523 36.45568466186523 18.47784423828125 36.45568466186523 Z" stroke="none"/>
      <path d="M 18.47784423828125 1.000003814697266 C 13.8093433380127 1.000003814697266 9.42027473449707 2.818016052246094 6.119144439697266 6.119144439697266 C 2.818016052246094 9.42027473449707 1.000003814697266 13.8093433380127 1.000003814697266 18.47784423828125 C 1.000003814697266 23.14634323120117 2.818016052246094 27.53541564941406 6.119144439697266 30.83654403686523 C 9.42027473449707 34.13767242431641 13.8093433380127 35.95568466186523 18.47784423828125 35.95568466186523 C 23.14634323120117 35.95568466186523 27.53541564941406 34.13767242431641 30.83654403686523 30.83654403686523 C 34.13767242431641 27.53541564941406 35.95568466186523 23.14634323120117 35.95568466186523 18.47784423828125 C 35.95568466186523 13.8093433380127 34.13767242431641 9.42027473449707 30.83654403686523 6.119144439697266 C 27.53541564941406 2.818016052246094 23.14634323120117 1.000003814697266 18.47784423828125 1.000003814697266 M 18.47784423828125 3.814697265625e-06 C 28.68287467956543 3.814697265625e-06 36.95568466186523 8.27281379699707 36.95568466186523 18.47784423828125 C 36.95568466186523 28.68287467956543 28.68287467956543 36.95568466186523 18.47784423828125 36.95568466186523 C 8.27281379699707 36.95568466186523 3.814697265625e-06 28.68287467956543 3.814697265625e-06 18.47784423828125 C 3.814697265625e-06 8.27281379699707 8.27281379699707 3.814697265625e-06 18.47784423828125 3.814697265625e-06 Z" stroke="none" fill="#707070"/>
    </g>
    <path id="Path_13" data-name="Path 13" d="M17.864,8.41V19.395a2.784,2.784,0,0,1-4.06,2.481l-3.917-2.01a.8.8,0,1,1,.726-1.42l3.949,2.01a1.2,1.2,0,0,0,1.173,0,1.181,1.181,0,0,0,.566-1.021V8.41a1.2,1.2,0,0,0-1.739-1.069l-5.8,2.983a2.808,2.808,0,0,1-1.276.3H3.792a1.2,1.2,0,0,0-1.2,1.2v4.148a1.2,1.2,0,0,0,1.2,1.2H7.453a.8.8,0,0,1,0,1.6H3.792A2.792,2.792,0,0,1,1,15.973V11.824A2.792,2.792,0,0,1,3.792,9.032H7.453A1.189,1.189,0,0,0,8,8.9l5.8-2.983A2.784,2.784,0,0,1,17.864,8.4ZM23.208,13.9,24.7,12.407a.8.8,0,1,0-1.133-1.125l-1.492,1.492-1.484-1.492a.8.8,0,0,0-1.133,1.125L20.943,13.9,19.451,15.39a.8.8,0,0,0,1.133,1.125l1.484-1.492,1.492,1.492a.8.8,0,0,0,1.133-1.125Z" transform="translate(282.512 28.579)" fill="#d4d4d4"/>
  </g>
</svg>
