<svg xmlns="http://www.w3.org/2000/svg" width="32" height="32" viewBox="0 0 32 32">
  <path id="Icon_awesome-pause-circle" data-name="Icon awesome-pause-circle" d="M16.563.563a16,16,0,1,0,16,16A16,16,0,0,0,16.563.563ZM15.53,21.724A1.035,1.035,0,0,1,14.5,22.756H11.4a1.035,1.035,0,0,1-1.032-1.032V11.4A1.035,1.035,0,0,1,11.4,10.369h3.1A1.035,1.035,0,0,1,15.53,11.4Zm7.226,0a1.035,1.035,0,0,1-1.032,1.032h-3.1a1.035,1.035,0,0,1-1.032-1.032V11.4a1.035,1.035,0,0,1,1.032-1.032h3.1A1.035,1.035,0,0,1,22.756,11.4Z" transform="translate(-0.563 -0.563)" fill="#fff"/>
</svg>
