<svg xmlns="http://www.w3.org/2000/svg" width="22" height="24" viewBox="0 0 22 24">
  <path id="Path_2" data-name="Path 2" d="M21.333,6.8H16.946l2.811-2.747a1.189,1.189,0,0,0,0-1.7,1.244,1.244,0,0,0-1.736,0L14,6.248l-1.43-2.4A1.239,1.239,0,0,0,10.9,3.4a1.192,1.192,0,0,0-.452,1.644L11.556,6.8H6.667A3.633,3.633,0,0,0,3,10.4V20a3.633,3.633,0,0,0,3.667,3.6v1.2a1.222,1.222,0,0,0,2.444,0V23.6h9.778v1.2a1.222,1.222,0,0,0,2.444,0V23.6A3.633,3.633,0,0,0,25,20V10.4A3.633,3.633,0,0,0,21.333,6.8ZM22.556,20a1.211,1.211,0,0,1-1.222,1.2H6.667A1.211,1.211,0,0,1,5.444,20V10.4A1.211,1.211,0,0,1,6.667,9.2H21.333a1.211,1.211,0,0,1,1.222,1.2Z" transform="translate(-3 -1.996)" fill="#707070"/>
</svg>
