<svg xmlns="http://www.w3.org/2000/svg" width="23.932" height="16.574" viewBox="0 0 23.932 16.574">
  <path id="Path_13" data-name="Path 13" d="M17.864,8.41V19.395a2.784,2.784,0,0,1-4.06,2.481l-3.917-2.01a.8.8,0,1,1,.726-1.42l3.949,2.01a1.2,1.2,0,0,0,1.173,0,1.181,1.181,0,0,0,.566-1.021V8.41a1.2,1.2,0,0,0-1.739-1.069l-5.8,2.983a2.808,2.808,0,0,1-1.276.3H3.792a1.2,1.2,0,0,0-1.2,1.2v4.148a1.2,1.2,0,0,0,1.2,1.2H7.453a.8.8,0,0,1,0,1.6H3.792A2.792,2.792,0,0,1,1,15.973V11.824A2.792,2.792,0,0,1,3.792,9.032H7.453A1.189,1.189,0,0,0,8,8.9l5.8-2.983A2.784,2.784,0,0,1,17.864,8.4ZM23.208,13.9,24.7,12.407a.8.8,0,1,0-1.133-1.125l-1.492,1.492-1.484-1.492a.8.8,0,0,0-1.133,1.125L20.943,13.9,19.451,15.39a.8.8,0,0,0,1.133,1.125l1.484-1.492,1.492,1.492a.8.8,0,0,0,1.133-1.125Z" transform="translate(-1 -5.612)" fill="#d4d4d4"/>
</svg>
