<svg xmlns="http://www.w3.org/2000/svg" width="25" height="25" viewBox="0 0 25 25">
  <path id="Path_26" data-name="Path 26" d="M14.5,2A12.5,12.5,0,0,0,5.9,5.462V3.25a1.25,1.25,0,1,0-2.5,0V8.875a1.25,1.25,0,0,0,1.25,1.25h5.625a1.25,1.25,0,0,0,0-2.5h-3A10,10,0,1,1,4.5,14.5a1.25,1.25,0,1,0-2.5,0A12.5,12.5,0,1,0,14.5,2Zm0,7.5a1.25,1.25,0,0,0-1.25,1.25V14.5a1.25,1.25,0,0,0,1.25,1.25H17a1.25,1.25,0,0,0,0-2.5H15.75v-2.5A1.25,1.25,0,0,0,14.5,9.5Z" transform="translate(-2 -2)" fill="#d4d4d4"/>
</svg>
