<svg xmlns="http://www.w3.org/2000/svg" width="20.258" height="18.62" viewBox="0 0 20.258 18.62">
  <path id="Path_28" data-name="Path 28" d="M18.9,7.176l-6.271,3.359a1.568,1.568,0,0,1-.741.186H7.9A1.568,1.568,0,0,0,6.33,12.29v8.022A1.568,1.568,0,0,0,7.9,21.88h3.989a1.569,1.569,0,0,1,.74.186L18.9,25.425a1.568,1.568,0,0,0,2.309-1.382V8.559A1.568,1.568,0,0,0,18.9,7.176Zm6.461,5.209a.62.62,0,0,0-1.018.707,5.613,5.613,0,0,1,0,6.417.62.62,0,0,0,1.018.707,6.852,6.852,0,0,0,0-7.831Z" transform="translate(-6.33 -6.991)" fill="#d4d4d4"/>
</svg>
